<?xml version="1.0" encoding="UTF-8" standalone="no"?>
<!-- Created with Inkscape (http://www.inkscape.org/) -->

<svg
   xmlns:dc="http://purl.org/dc/elements/1.1/"
   xmlns:cc="http://creativecommons.org/ns#"
   xmlns:rdf="http://www.w3.org/1999/02/22-rdf-syntax-ns#"
   xmlns:svg="http://www.w3.org/2000/svg"
   xmlns="http://www.w3.org/2000/svg"
   xmlns:xlink="http://www.w3.org/1999/xlink"
   xmlns:sodipodi="http://sodipodi.sourceforge.net/DTD/sodipodi-0.dtd"
   xmlns:inkscape="http://www.inkscape.org/namespaces/inkscape"
   width="194.47188"
   height="189.95323"
   id="svg6237"
   version="1.1"
   inkscape:version="0.48.3.1 r9886"
   sodipodi:docname="small_logo.svg">
  <defs
     id="defs6239">
    <clipPath
       clipPathUnits="userSpaceOnUse"
       id="clipPath594">
      <path
         inkscape:connector-curvature="0"
         d="m 0,595.28 841.89,0 L 841.89,0 0,0 0,595.28 z"
         id="path596" />
    </clipPath>
    <clipPath
       clipPathUnits="userSpaceOnUse"
       id="clipPath602">
      <path
         inkscape:connector-curvature="0"
         d="m 54.4683,521.835 44.6777,0 0,-46.674 -44.6777,0 0,46.674 z"
         id="path604" />
    </clipPath>
    <mask
       maskUnits="userSpaceOnUse"
       x="0"
       y="0"
       width="1"
       height="1"
       id="mask646">
      <g
         id="g648">
        <g
           clip-path="url(#clipPath606)"
           id="g650">
          <g
             id="g652">
            <g
               id="g654" />
            <g
               id="g656">
              <g
                 clip-path="url(#clipPath610)"
                 id="g658">
                <g
                   id="g660">
                  <g
                     clip-path="url(#clipPath614)"
                     id="g662">
                    <g
                       id="g664">
                      <g
                         id="g666" />
                      <g
                         mask="url(#mask626)"
                         id="g668">
                        <g
                           id="g670">
                          <path
                             inkscape:connector-curvature="0"
                             d="m 81.447,475.56 c 5.383,-1.051 13.367,0.308 13.367,0.308 1.252,0.21 2.645,1.357 3.093,2.548 0,0 0.791,2.099 1.239,4.401 3.437,17.657 -8.903,34.915 -27.565,38.549 -4.972,0.968 -12.199,0.138 -12.199,0.138 -1.263,-0.144 -2.651,-1.24 -3.082,-2.436 0,0 -0.763,-2.103 -1.211,-4.406 -3.52,-18.077 8.281,-35.583 26.358,-39.102"
                             style="fill:url(#linearGradient640);stroke:none"
                             id="path672" />
                        </g>
                      </g>
                    </g>
                  </g>
                </g>
              </g>
            </g>
          </g>
        </g>
      </g>
    </mask>
    <clipPath
       clipPathUnits="userSpaceOnUse"
       id="clipPath606">
      <path
         inkscape:connector-curvature="0"
         d="m 54.4683,521.835 45.2524,0 0,-46.674 -45.2524,0 0,46.674 z"
         id="path608" />
    </clipPath>
    <clipPath
       clipPathUnits="userSpaceOnUse"
       id="clipPath610">
      <path
         inkscape:connector-curvature="0"
         d="m 51.5693,522.334 51.0137,0 0,-47.825 -51.0137,0 0,47.825 z"
         id="path612" />
    </clipPath>
    <clipPath
       clipPathUnits="userSpaceOnUse"
       id="clipPath614">
      <path
         inkscape:connector-curvature="0"
         d="m 81.447,475.56 c 5.383,-1.051 13.367,0.308 13.367,0.308 1.252,0.21 2.645,1.357 3.093,2.548 0,0 0.791,2.099 1.239,4.401 3.437,17.657 -8.903,34.915 -27.565,38.549 -4.972,0.968 -12.199,0.138 -12.199,0.138 -1.263,-0.144 -2.651,-1.24 -3.082,-2.436 0,0 -0.763,-2.103 -1.211,-4.406 -3.52,-18.077 8.281,-35.583 26.358,-39.102"
         id="path616" />
    </clipPath>
    <mask
       maskUnits="userSpaceOnUse"
       x="0"
       y="0"
       width="1"
       height="1"
       id="mask626">
      <g
         id="g628">
        <g
           clip-path="url(#clipPath618)"
           id="g630">
          <g
             id="g632">
            <g
               id="g634" />
            <g
               id="g636">
              <g
                 clip-path="url(#clipPath622)"
                 id="g638" />
            </g>
          </g>
        </g>
      </g>
    </mask>
    <clipPath
       clipPathUnits="userSpaceOnUse"
       id="clipPath618">
      <path
         inkscape:connector-curvature="0"
         d="m -24153,24871.3 32766,0 0,-32766.02 -32766,0 0,32766.02 z"
         id="path620" />
    </clipPath>
    <clipPath
       clipPathUnits="userSpaceOnUse"
       id="clipPath622">
      <path
         inkscape:connector-curvature="0"
         d="m -24153,24871.3 32766,0 0,-32766.02 -32766,0 0,32766.02 z"
         id="path624" />
    </clipPath>
    <linearGradient
       x1="0"
       y1="0"
       x2="1"
       y2="0"
       gradientUnits="userSpaceOnUse"
       gradientTransform="matrix(-31.235157,-21.054295,-21.054295,31.235157,92.489746,509.09668)"
       spreadMethod="pad"
       id="linearGradient640">
      <stop
         style="stop-opacity:1;stop-color:#2b2b2a"
         offset="0"
         id="stop642" />
      <stop
         style="stop-opacity:1;stop-color:#ffffff"
         offset="1"
         id="stop644" />
    </linearGradient>
    <clipPath
       clipPathUnits="userSpaceOnUse"
       id="clipPath674">
      <path
         inkscape:connector-curvature="0"
         d="m 54.4683,521.835 44.6777,0 0,-46.674 -44.6777,0 0,46.674 z"
         id="path676" />
    </clipPath>
    <linearGradient
       x1="0"
       y1="0"
       x2="1"
       y2="0"
       gradientUnits="userSpaceOnUse"
       gradientTransform="matrix(-23.632238,-15.929489,-15.929489,23.632238,84.886719,503.97266)"
       spreadMethod="pad"
       id="linearGradient682">
      <stop
         style="stop-opacity:1;stop-color:#ffffff"
         offset="0"
         id="stop684" />
      <stop
         style="stop-opacity:1;stop-color:#ffffff"
         offset="1"
         id="stop686" />
    </linearGradient>
    <linearGradient
       x1="0"
       y1="0"
       x2="1"
       y2="0"
       gradientUnits="userSpaceOnUse"
       gradientTransform="matrix(-65.126694,34.698822,34.698822,65.126694,120.72314,253.52441)"
       spreadMethod="pad"
       id="linearGradient1198">
      <stop
         style="stop-opacity:1;stop-color:#b5b5b7"
         offset="0"
         id="stop1200" />
      <stop
         style="stop-opacity:1;stop-color:#ffffff"
         offset="0.266667"
         id="stop1202" />
      <stop
         style="stop-opacity:1;stop-color:#f6f6f7"
         offset="0.557576"
         id="stop1204" />
      <stop
         style="stop-opacity:1;stop-color:#b5b5b7"
         offset="0.854545"
         id="stop1206" />
      <stop
         style="stop-opacity:1;stop-color:#eceeef"
         offset="1"
         id="stop1208" />
    </linearGradient>
    <linearGradient
       x1="0"
       y1="0"
       x2="1"
       y2="0"
       gradientUnits="userSpaceOnUse"
       gradientTransform="matrix(-66.739433,35.558075,35.558075,66.739433,121.53027,253.09473)"
       spreadMethod="pad"
       id="linearGradient1172">
      <stop
         style="stop-opacity:1;stop-color:#eceeef"
         offset="0"
         id="stop1174" />
      <stop
         style="stop-opacity:1;stop-color:#b5b5b7"
         offset="0.145455"
         id="stop1176" />
      <stop
         style="stop-opacity:1;stop-color:#f6f6f7"
         offset="0.442424"
         id="stop1178" />
      <stop
         style="stop-opacity:1;stop-color:#ffffff"
         offset="0.733333"
         id="stop1180" />
      <stop
         style="stop-opacity:1;stop-color:#b5b5b7"
         offset="1"
         id="stop1182" />
    </linearGradient>
    <clipPath
       clipPathUnits="userSpaceOnUse"
       id="clipPath1152">
      <path
         inkscape:connector-curvature="0"
         d="m 0,595.28 841.89,0 L 841.89,0 0,0 0,595.28 z"
         id="path1154" />
    </clipPath>
    <linearGradient
       x1="0"
       y1="0"
       x2="1"
       y2="0"
       gradientUnits="userSpaceOnUse"
       gradientTransform="matrix(-68.741135,36.624558,36.624558,68.741135,122.5293,252.56152)"
       spreadMethod="pad"
       id="linearGradient1134">
      <stop
         style="stop-opacity:1;stop-color:#5c5a5b"
         offset="0"
         id="stop1136" />
      <stop
         style="stop-opacity:1;stop-color:#444443"
         offset="0.145455"
         id="stop1138" />
      <stop
         style="stop-opacity:1;stop-color:#fdf0f7"
         offset="0.442424"
         id="stop1140" />
      <stop
         style="stop-opacity:1;stop-color:#2b2b2a"
         offset="0.733333"
         id="stop1142" />
      <stop
         style="stop-opacity:1;stop-color:#444443"
         offset="1"
         id="stop1144" />
    </linearGradient>
    <clipPath
       clipPathUnits="userSpaceOnUse"
       id="clipPath1014">
      <path
         inkscape:connector-curvature="0"
         d="m 0,595.28 841.89,0 L 841.89,0 0,0 0,595.28 z"
         id="path1016" />
    </clipPath>
    <mask
       maskUnits="userSpaceOnUse"
       x="0"
       y="0"
       width="1"
       height="1"
       id="mask1062">
      <g
         id="g1064">
        <g
           clip-path="url(#clipPath1022)"
           id="g1066">
          <g
             id="g1068">
            <g
               id="g1070" />
            <g
               id="g1072">
              <g
                 clip-path="url(#clipPath1026)"
                 id="g1074">
                <g
                   id="g1076">
                  <g
                     clip-path="url(#clipPath1030)"
                     id="g1078">
                    <g
                       id="g1080">
                      <g
                         id="g1082" />
                      <g
                         mask="url(#mask1042)"
                         id="g1084">
                        <g
                           id="g1086">
                          <path
                             inkscape:connector-curvature="0"
                             d="m 57.925,295.413 c 13.554,16.695 38.076,19.245 54.772,5.692 16.696,-13.553 19.245,-38.075 5.692,-54.772 -13.552,-16.695 -38.075,-19.244 -54.77,-5.691 -16.697,13.554 -19.245,38.074 -5.694,54.771"
                             style="fill:url(#radialGradient1056);stroke:none"
                             id="path1088" />
                        </g>
                      </g>
                    </g>
                  </g>
                </g>
              </g>
            </g>
          </g>
        </g>
      </g>
    </mask>
    <clipPath
       clipPathUnits="userSpaceOnUse"
       id="clipPath1022">
      <path
         inkscape:connector-curvature="0"
         d="m 49.2192,309.812 77.8778,0 0,-77.877 -77.8778,0 0,77.877 z"
         id="path1024" />
    </clipPath>
    <clipPath
       clipPathUnits="userSpaceOnUse"
       id="clipPath1026">
      <path
         inkscape:connector-curvature="0"
         d="m 44.374,314.658 87.568,0 0,-87.569 -87.568,0 0,87.569 z"
         id="path1028" />
    </clipPath>
    <clipPath
       clipPathUnits="userSpaceOnUse"
       id="clipPath1030">
      <path
         inkscape:connector-curvature="0"
         d="m 57.925,295.413 c 13.554,16.695 38.076,19.245 54.772,5.692 16.696,-13.553 19.245,-38.075 5.692,-54.772 -13.552,-16.695 -38.075,-19.244 -54.77,-5.691 -16.697,13.554 -19.245,38.074 -5.694,54.771"
         id="path1032" />
    </clipPath>
    <mask
       maskUnits="userSpaceOnUse"
       x="0"
       y="0"
       width="1"
       height="1"
       id="mask1042">
      <g
         id="g1044">
        <g
           clip-path="url(#clipPath1034)"
           id="g1046">
          <g
             id="g1048">
            <g
               id="g1050" />
            <g
               id="g1052">
              <g
                 clip-path="url(#clipPath1038)"
                 id="g1054" />
            </g>
          </g>
        </g>
      </g>
    </mask>
    <clipPath
       clipPathUnits="userSpaceOnUse"
       id="clipPath1034">
      <path
         inkscape:connector-curvature="0"
         d="m -24153,24871.3 32766,0 0,-32766.02 -32766,0 0,32766.02 z"
         id="path1036" />
    </clipPath>
    <clipPath
       clipPathUnits="userSpaceOnUse"
       id="clipPath1038">
      <path
         inkscape:connector-curvature="0"
         d="m -24153,24871.3 32766,0 0,-32766.02 -32766,0 0,32766.02 z"
         id="path1040" />
    </clipPath>
    <radialGradient
       fx="0"
       fy="0"
       cx="0"
       cy="0"
       r="1"
       gradientUnits="userSpaceOnUse"
       gradientTransform="matrix(-30.230198,24.541388,24.541388,30.230198,82.225586,267.43848)"
       spreadMethod="pad"
       id="radialGradient1056">
      <stop
         style="stop-opacity:1;stop-color:#494948"
         offset="0"
         id="stop1058" />
      <stop
         style="stop-opacity:1;stop-color:#b4b3b3"
         offset="1"
         id="stop1060" />
    </radialGradient>
    <clipPath
       clipPathUnits="userSpaceOnUse"
       id="clipPath1094">
      <path
         inkscape:connector-curvature="0"
         d="m 49.2192,309.812 77.8778,0 0,-77.877 -77.8778,0 0,77.877 z"
         id="path1096" />
    </clipPath>
    <radialGradient
       fx="0"
       fy="0"
       cx="0"
       cy="0"
       r="1"
       gradientUnits="userSpaceOnUse"
       gradientTransform="matrix(-30.230198,24.541388,24.541388,30.230198,82.225586,267.43848)"
       spreadMethod="pad"
       id="radialGradient1102">
      <stop
         style="stop-opacity:1;stop-color:#f9fbfd"
         offset="0"
         id="stop1104" />
      <stop
         style="stop-opacity:1;stop-color:#d9e0e6"
         offset="1"
         id="stop1106" />
    </radialGradient>
    <linearGradient
       x1="0"
       y1="0"
       x2="1"
       y2="0"
       gradientUnits="userSpaceOnUse"
       gradientTransform="matrix(-13.989112,-1.4536929,-1.4536929,13.989112,121.47754,301.65234)"
       spreadMethod="pad"
       id="linearGradient1000">
      <stop
         style="stop-opacity:1;stop-color:#ca9f6a"
         offset="0"
         id="stop1002" />
      <stop
         style="stop-opacity:1;stop-color:#95643f"
         offset="0.442424"
         id="stop1004" />
      <stop
         style="stop-opacity:1;stop-color:#6c4324"
         offset="1"
         id="stop1006" />
    </linearGradient>
    <linearGradient
       x1="0"
       y1="0"
       x2="1"
       y2="0"
       gradientUnits="userSpaceOnUse"
       gradientTransform="matrix(-10.108145,8.2051048,8.2051048,10.108145,120.83057,299.08496)"
       spreadMethod="pad"
       id="linearGradient968">
      <stop
         style="stop-opacity:1;stop-color:#8a8989"
         offset="0"
         id="stop970" />
      <stop
         style="stop-opacity:1;stop-color:#f6f6f6"
         offset="0.0969697"
         id="stop972" />
      <stop
         style="stop-opacity:1;stop-color:#2b2b2a"
         offset="0.4"
         id="stop974" />
      <stop
         style="stop-opacity:1;stop-color:#444443"
         offset="0.490909"
         id="stop976" />
      <stop
         style="stop-opacity:1;stop-color:#ffffff"
         offset="0.636364"
         id="stop978" />
      <stop
         style="stop-opacity:1;stop-color:#2b2b2a"
         offset="0.812121"
         id="stop980" />
      <stop
         style="stop-opacity:1;stop-color:#f6f6f6"
         offset="0.835037"
         id="stop982" />
      <stop
         style="stop-opacity:1;stop-color:#9e9e9e"
         offset="1"
         id="stop984" />
    </linearGradient>
    <linearGradient
       x1="0"
       y1="0"
       x2="1"
       y2="0"
       gradientUnits="userSpaceOnUse"
       gradientTransform="matrix(-10.49937,8.5226736,8.5226736,10.49937,121.58447,299.53613)"
       spreadMethod="pad"
       id="linearGradient936">
      <stop
         style="stop-opacity:1;stop-color:#b4b3b3"
         offset="0"
         id="stop938" />
      <stop
         style="stop-opacity:1;stop-color:#383737"
         offset="0.0969697"
         id="stop940" />
      <stop
         style="stop-opacity:1;stop-color:#ffffff"
         offset="0.4"
         id="stop942" />
      <stop
         style="stop-opacity:1;stop-color:#ededed"
         offset="0.490909"
         id="stop944" />
      <stop
         style="stop-opacity:1;stop-color:#2b2b2a"
         offset="0.636364"
         id="stop946" />
      <stop
         style="stop-opacity:1;stop-color:#ffffff"
         offset="0.812121"
         id="stop948" />
      <stop
         style="stop-opacity:1;stop-color:#383737"
         offset="0.835037"
         id="stop950" />
      <stop
         style="stop-opacity:1;stop-color:#9e9e9e"
         offset="1"
         id="stop952" />
    </linearGradient>
    <linearGradient
       x1="0"
       y1="0"
       x2="1"
       y2="0"
       gradientUnits="userSpaceOnUse"
       gradientTransform="matrix(-5.1100469,3.8601594,3.8601594,5.1100469,121.08398,304.85645)"
       spreadMethod="pad"
       id="linearGradient904">
      <stop
         style="stop-opacity:1;stop-color:#8a8989"
         offset="0"
         id="stop906" />
      <stop
         style="stop-opacity:1;stop-color:#f6f6f6"
         offset="0.0969697"
         id="stop908" />
      <stop
         style="stop-opacity:1;stop-color:#2b2b2a"
         offset="0.4"
         id="stop910" />
      <stop
         style="stop-opacity:1;stop-color:#444443"
         offset="0.490909"
         id="stop912" />
      <stop
         style="stop-opacity:1;stop-color:#ffffff"
         offset="0.636364"
         id="stop914" />
      <stop
         style="stop-opacity:1;stop-color:#2b2b2a"
         offset="0.812121"
         id="stop916" />
      <stop
         style="stop-opacity:1;stop-color:#f6f6f6"
         offset="0.835037"
         id="stop918" />
      <stop
         style="stop-opacity:1;stop-color:#9e9e9e"
         offset="1"
         id="stop920" />
    </linearGradient>
    <linearGradient
       x1="0"
       y1="0"
       x2="1"
       y2="0"
       gradientUnits="userSpaceOnUse"
       gradientTransform="matrix(-4.9090114,3.7082958,3.7082958,4.9090114,123.10596,307.77051)"
       spreadMethod="pad"
       id="linearGradient872">
      <stop
         style="stop-opacity:1;stop-color:#b4b3b3"
         offset="0"
         id="stop874" />
      <stop
         style="stop-opacity:1;stop-color:#383737"
         offset="0.0969697"
         id="stop876" />
      <stop
         style="stop-opacity:1;stop-color:#ffffff"
         offset="0.4"
         id="stop878" />
      <stop
         style="stop-opacity:1;stop-color:#ededed"
         offset="0.490909"
         id="stop880" />
      <stop
         style="stop-opacity:1;stop-color:#2b2b2a"
         offset="0.636364"
         id="stop882" />
      <stop
         style="stop-opacity:1;stop-color:#ffffff"
         offset="0.812121"
         id="stop884" />
      <stop
         style="stop-opacity:1;stop-color:#383737"
         offset="0.835037"
         id="stop886" />
      <stop
         style="stop-opacity:1;stop-color:#9e9e9e"
         offset="1"
         id="stop888" />
    </linearGradient>
    <linearGradient
       x1="0"
       y1="0"
       x2="1"
       y2="0"
       gradientUnits="userSpaceOnUse"
       gradientTransform="matrix(-4.912128,3.7106504,3.7106504,4.912128,123.45752,308.23535)"
       spreadMethod="pad"
       id="linearGradient840">
      <stop
         style="stop-opacity:1;stop-color:#8a8989"
         offset="0"
         id="stop842" />
      <stop
         style="stop-opacity:1;stop-color:#f6f6f6"
         offset="0.0969697"
         id="stop844" />
      <stop
         style="stop-opacity:1;stop-color:#2b2b2a"
         offset="0.4"
         id="stop846" />
      <stop
         style="stop-opacity:1;stop-color:#444443"
         offset="0.490909"
         id="stop848" />
      <stop
         style="stop-opacity:1;stop-color:#ffffff"
         offset="0.636364"
         id="stop850" />
      <stop
         style="stop-opacity:1;stop-color:#2b2b2a"
         offset="0.812121"
         id="stop852" />
      <stop
         style="stop-opacity:1;stop-color:#f6f6f6"
         offset="0.835037"
         id="stop854" />
      <stop
         style="stop-opacity:1;stop-color:#9e9e9e"
         offset="1"
         id="stop856" />
    </linearGradient>
    <linearGradient
       x1="0"
       y1="0"
       x2="1"
       y2="0"
       gradientUnits="userSpaceOnUse"
       gradientTransform="matrix(-5.6780896,4.2892623,4.2892623,5.6780896,124.51221,308.90918)"
       spreadMethod="pad"
       id="linearGradient808">
      <stop
         style="stop-opacity:1;stop-color:#8a8989"
         offset="0"
         id="stop810" />
      <stop
         style="stop-opacity:1;stop-color:#f6f6f6"
         offset="0.0969697"
         id="stop812" />
      <stop
         style="stop-opacity:1;stop-color:#2b2b2a"
         offset="0.4"
         id="stop814" />
      <stop
         style="stop-opacity:1;stop-color:#444443"
         offset="0.490909"
         id="stop816" />
      <stop
         style="stop-opacity:1;stop-color:#ffffff"
         offset="0.636364"
         id="stop818" />
      <stop
         style="stop-opacity:1;stop-color:#2b2b2a"
         offset="0.812121"
         id="stop820" />
      <stop
         style="stop-opacity:1;stop-color:#f6f6f6"
         offset="0.835037"
         id="stop822" />
      <stop
         style="stop-opacity:1;stop-color:#9e9e9e"
         offset="1"
         id="stop824" />
    </linearGradient>
    <radialGradient
       fx="0"
       fy="0"
       cx="0"
       cy="0"
       r="1"
       gradientUnits="userSpaceOnUse"
       gradientTransform="matrix(-3.5844388,2.7071407,0.3983773,0.5279834,121.7666,311.11914)"
       spreadMethod="pad"
       id="radialGradient788">
      <stop
         style="stop-opacity:1;stop-color:#2e2e2d"
         offset="0"
         id="stop790" />
      <stop
         style="stop-opacity:1;stop-color:#444443"
         offset="1"
         id="stop792" />
    </radialGradient>
    <linearGradient
       x1="0"
       y1="0"
       x2="1"
       y2="0"
       gradientUnits="userSpaceOnUse"
       gradientTransform="matrix(-5.6780896,4.2892623,4.2892623,5.6780896,124.0835,308.34082)"
       spreadMethod="pad"
       id="linearGradient756">
      <stop
         style="stop-opacity:1;stop-color:#b4b3b3"
         offset="0"
         id="stop758" />
      <stop
         style="stop-opacity:1;stop-color:#383737"
         offset="0.0969697"
         id="stop760" />
      <stop
         style="stop-opacity:1;stop-color:#ffffff"
         offset="0.4"
         id="stop762" />
      <stop
         style="stop-opacity:1;stop-color:#ededed"
         offset="0.490909"
         id="stop764" />
      <stop
         style="stop-opacity:1;stop-color:#2b2b2a"
         offset="0.636364"
         id="stop766" />
      <stop
         style="stop-opacity:1;stop-color:#ffffff"
         offset="0.812121"
         id="stop768" />
      <stop
         style="stop-opacity:1;stop-color:#383737"
         offset="0.835037"
         id="stop770" />
      <stop
         style="stop-opacity:1;stop-color:#9e9e9e"
         offset="1"
         id="stop772" />
    </linearGradient>
    <linearGradient
       x1="0"
       y1="0"
       x2="1"
       y2="0"
       gradientUnits="userSpaceOnUse"
       gradientTransform="matrix(11.280474,-10.536974,-10.536974,-11.280474,135.59717,342.18945)"
       spreadMethod="pad"
       id="linearGradient734">
      <stop
         style="stop-opacity:1;stop-color:#ca9f6a"
         offset="0"
         id="stop736" />
      <stop
         style="stop-opacity:1;stop-color:#95643f"
         offset="0.442424"
         id="stop738" />
      <stop
         style="stop-opacity:1;stop-color:#6c4324"
         offset="1"
         id="stop740" />
    </linearGradient>
    <linearGradient
       inkscape:collect="always"
       xlink:href="#linearGradient734"
       id="linearGradient7676"
       gradientUnits="userSpaceOnUse"
       gradientTransform="matrix(11.280474,-10.536974,-10.536974,-11.280474,135.59717,342.18945)"
       spreadMethod="pad"
       x1="0"
       y1="0"
       x2="1"
       y2="0" />
    <linearGradient
       inkscape:collect="always"
       xlink:href="#linearGradient756"
       id="linearGradient7678"
       gradientUnits="userSpaceOnUse"
       gradientTransform="matrix(-5.6780896,4.2892623,4.2892623,5.6780896,124.0835,308.34082)"
       spreadMethod="pad"
       x1="0"
       y1="0"
       x2="1"
       y2="0" />
    <radialGradient
       inkscape:collect="always"
       xlink:href="#radialGradient788"
       id="radialGradient7680"
       gradientUnits="userSpaceOnUse"
       gradientTransform="matrix(-3.5844388,2.7071407,0.3983773,0.5279834,121.7666,311.11914)"
       spreadMethod="pad"
       cx="0"
       cy="0"
       fx="0"
       fy="0"
       r="1" />
    <linearGradient
       inkscape:collect="always"
       xlink:href="#linearGradient808"
       id="linearGradient7682"
       gradientUnits="userSpaceOnUse"
       gradientTransform="matrix(-5.6780896,4.2892623,4.2892623,5.6780896,124.51221,308.90918)"
       spreadMethod="pad"
       x1="0"
       y1="0"
       x2="1"
       y2="0" />
    <linearGradient
       inkscape:collect="always"
       xlink:href="#linearGradient840"
       id="linearGradient7684"
       gradientUnits="userSpaceOnUse"
       gradientTransform="matrix(-4.912128,3.7106504,3.7106504,4.912128,123.45752,308.23535)"
       spreadMethod="pad"
       x1="0"
       y1="0"
       x2="1"
       y2="0" />
    <linearGradient
       inkscape:collect="always"
       xlink:href="#linearGradient872"
       id="linearGradient7686"
       gradientUnits="userSpaceOnUse"
       gradientTransform="matrix(-4.9090114,3.7082958,3.7082958,4.9090114,123.10596,307.77051)"
       spreadMethod="pad"
       x1="0"
       y1="0"
       x2="1"
       y2="0" />
    <linearGradient
       inkscape:collect="always"
       xlink:href="#linearGradient904"
       id="linearGradient7688"
       gradientUnits="userSpaceOnUse"
       gradientTransform="matrix(-5.1100469,3.8601594,3.8601594,5.1100469,121.08398,304.85645)"
       spreadMethod="pad"
       x1="0"
       y1="0"
       x2="1"
       y2="0" />
    <linearGradient
       inkscape:collect="always"
       xlink:href="#linearGradient936"
       id="linearGradient7690"
       gradientUnits="userSpaceOnUse"
       gradientTransform="matrix(-10.49937,8.5226736,8.5226736,10.49937,121.58447,299.53613)"
       spreadMethod="pad"
       x1="0"
       y1="0"
       x2="1"
       y2="0" />
    <linearGradient
       inkscape:collect="always"
       xlink:href="#linearGradient968"
       id="linearGradient7692"
       gradientUnits="userSpaceOnUse"
       gradientTransform="matrix(-10.108145,8.2051048,8.2051048,10.108145,120.83057,299.08496)"
       spreadMethod="pad"
       x1="0"
       y1="0"
       x2="1"
       y2="0" />
    <linearGradient
       inkscape:collect="always"
       xlink:href="#linearGradient1000"
       id="linearGradient7694"
       gradientUnits="userSpaceOnUse"
       gradientTransform="matrix(-13.989112,-1.4536929,-1.4536929,13.989112,121.47754,301.65234)"
       spreadMethod="pad"
       x1="0"
       y1="0"
       x2="1"
       y2="0" />
    <radialGradient
       inkscape:collect="always"
       xlink:href="#radialGradient1102"
       id="radialGradient7696"
       gradientUnits="userSpaceOnUse"
       gradientTransform="matrix(-30.230198,24.541388,24.541388,30.230198,82.225586,267.43848)"
       spreadMethod="pad"
       cx="0"
       cy="0"
       fx="0"
       fy="0"
       r="1" />
    <linearGradient
       inkscape:collect="always"
       xlink:href="#linearGradient1134"
       id="linearGradient7698"
       gradientUnits="userSpaceOnUse"
       gradientTransform="matrix(-68.741135,36.624558,36.624558,68.741135,122.5293,252.56152)"
       spreadMethod="pad"
       x1="0"
       y1="0"
       x2="1"
       y2="0" />
    <linearGradient
       inkscape:collect="always"
       xlink:href="#linearGradient1172"
       id="linearGradient7700"
       gradientUnits="userSpaceOnUse"
       gradientTransform="matrix(-66.739433,35.558075,35.558075,66.739433,121.53027,253.09473)"
       spreadMethod="pad"
       x1="0"
       y1="0"
       x2="1"
       y2="0" />
    <linearGradient
       inkscape:collect="always"
       xlink:href="#linearGradient1198"
       id="linearGradient7702"
       gradientUnits="userSpaceOnUse"
       gradientTransform="matrix(-65.126694,34.698822,34.698822,65.126694,120.72314,253.52441)"
       spreadMethod="pad"
       x1="0"
       y1="0"
       x2="1"
       y2="0" />
  </defs>
  <sodipodi:namedview
     id="base"
     pagecolor="#ffffff"
     bordercolor="#666666"
     borderopacity="1.0"
     inkscape:pageopacity="0.0"
     inkscape:pageshadow="2"
     inkscape:zoom="1.3984449"
     inkscape:cx="314.37478"
     inkscape:cy="89.543587"
     inkscape:document-units="px"
     inkscape:current-layer="layer1"
     showgrid="false"
     fit-margin-top="3"
     fit-margin-left="3"
     fit-margin-right="3"
     fit-margin-bottom="3"
     inkscape:window-width="1920"
     inkscape:window-height="1009"
     inkscape:window-x="0"
     inkscape:window-y="22"
     inkscape:window-maximized="1" />
  <metadata
     id="metadata6242">
    <rdf:RDF>
      <cc:Work
         rdf:about="">
        <dc:format>image/svg+xml</dc:format>
        <dc:type
           rdf:resource="http://purl.org/dc/dcmitype/StillImage" />
        <dc:title></dc:title>
      </cc:Work>
    </rdf:RDF>
  </metadata>
  <g
     inkscape:label="Layer 1"
     inkscape:groupmode="layer"
     id="layer1"
     transform="translate(4.001575,-28.659961)">
    <g
       transform="matrix(1.25,0,0,-1.25,-40.42145,463.7107)"
       id="g590">
      <g
         id="g592"
         clip-path="url(#clipPath594)">
        <g
           id="g714"
           transform="translate(96.1079,293.4424)">
          <path
             inkscape:connector-curvature="0"
             d="m 0,0 c 0,17.779 -9.63,33.708 -26.545,33.708 -17.038,0 -26.667,-15.681 -26.667,-34.571 0,-16.545 8.642,-33.83 26.545,-33.83 C -8.889,-34.693 0,-18.272 0,0 m -64.572,-1.356 c 0,28.643 17.408,43.828 38.646,43.828 21.976,0 37.409,-17.037 37.409,-42.226 0,-26.421 -16.422,-43.705 -38.645,-43.705 -22.718,0 -37.41,17.41 -37.41,42.103"
             style="fill:#96c22c;fill-opacity:1;fill-rule:nonzero;stroke:none"
             id="path716" />
        </g>
        <g
           id="g718"
           transform="translate(128.981,253.792)">
          <path
             inkscape:connector-curvature="0"
             d="m 0,0 c 0,17.008 -8.819,34.521 -26.837,34.521 -18.522,0 -27.594,-17.134 -27.469,-35.529 -0.125,-18.019 9.828,-34.273 26.964,-34.273 C -9.827,-35.281 0,-19.406 0,0 m 9.074,-55.314 c -11.468,3.023 -22.681,6.423 -32.51,9.826 -1.763,0.631 -3.527,1.261 -5.165,1.261 -20.16,0.756 -37.422,15.623 -37.422,42.965 0,27.217 16.631,44.732 39.563,44.732 23.059,0 38.052,-17.893 38.052,-42.968 0,-21.797 -10.079,-35.783 -24.191,-40.697 l 0,-0.504 c 8.441,-2.143 17.641,-4.158 24.822,-5.42 l -3.149,-9.195 z"
             style="fill:#2b2b2a;fill-opacity:1;fill-rule:nonzero;stroke:none"
             id="path720" />
        </g>
      </g>
    </g>
    <g
       id="g7322"
       transform="matrix(0.95931398,0.28234145,-0.28234145,0.95931398,-248.60889,-723.90386)">
      <g
         id="g722"
         transform="matrix(1.25,0,0,-1.25,429.29948,1059.7007)">
        <g
           id="g724">
          <g
             id="g730">
            <g
               id="g732">
              <path
                 id="path742"
                 style="fill:url(#linearGradient7676);stroke:none"
                 d="m 156.788,364.871 c -0.009,-0.011 -0.012,-0.028 -0.015,-0.043 l 0,0 -0.014,0.009 -38.395,-50.827 7.056,-5.332 38.397,50.827 -0.01,0.01 c 0.013,0.008 0.029,0.014 0.036,0.024 l 0,0 c 0.243,0.325 -1.143,1.775 -3.087,3.248 l 0,0 c -1.689,1.275 -3.249,2.147 -3.792,2.147 l 0,0 c -0.084,0 -0.144,-0.02 -0.176,-0.063"
                 inkscape:connector-curvature="0" />
            </g>
          </g>
        </g>
      </g>
      <g
         id="g744"
         transform="matrix(1.25,0,0,-1.25,429.29948,1059.7007)">
        <g
           id="g746">
          <g
             id="g752">
            <g
               id="g754">
              <path
                 id="path774"
                 style="fill:url(#linearGradient7678);stroke:none"
                 d="m 118.407,312.63 c -0.117,-0.152 1.062,-1.234 2.629,-2.42 l 0,0 c 1.566,-1.183 2.933,-2.021 3.049,-1.866 l 0,0 c 0.116,0.152 -1.064,1.235 -2.63,2.419 l 0,0 c -1.444,1.091 -2.711,1.886 -2.996,1.886 l 0,0 c -0.025,0 -0.043,-0.006 -0.052,-0.019"
                 inkscape:connector-curvature="0" />
            </g>
          </g>
        </g>
      </g>
      <g
         id="g776"
         transform="matrix(1.25,0,0,-1.25,429.29948,1059.7007)">
        <g
           id="g778">
          <g
             id="g784">
            <g
               id="g786">
              <path
                 id="path794"
                 style="fill:url(#radialGradient7680);stroke:none"
                 d="m 118.364,314.01 c -0.242,-0.321 1.143,-1.776 3.091,-3.247 l 0,0 c 1.947,-1.471 3.721,-2.405 3.965,-2.085 l 0,0 c 0.243,0.32 -1.141,1.772 -3.092,3.246 l 0,0 c -1.69,1.277 -3.249,2.148 -3.791,2.148 l 0,0 c -0.082,0 -0.141,-0.02 -0.173,-0.062"
                 inkscape:connector-curvature="0" />
            </g>
          </g>
        </g>
      </g>
      <g
         id="g796"
         transform="matrix(1.25,0,0,-1.25,429.29948,1059.7007)">
        <g
           id="g798">
          <g
             id="g804">
            <g
               id="g806">
              <path
                 id="path826"
                 style="fill:url(#linearGradient7682);stroke:none"
                 d="m 119.054,313.488 -0.647,-0.858 c 0.118,0.155 1.478,-0.681 3.048,-1.867 l 0,0 c 1.566,-1.184 2.746,-2.267 2.63,-2.419 l 0,0 0.646,0.856 c 0.113,0.151 -1.061,1.235 -2.63,2.422 l 0,0 c -1.443,1.088 -2.715,1.884 -2.997,1.884 l 0,0 c -0.024,0 -0.041,-0.006 -0.05,-0.018"
                 inkscape:connector-curvature="0" />
            </g>
          </g>
        </g>
      </g>
      <g
         id="g828"
         transform="matrix(1.25,0,0,-1.25,429.29948,1059.7007)">
        <g
           id="g830">
          <g
             id="g836">
            <g
               id="g838">
              <path
                 id="path858"
                 style="fill:url(#linearGradient7684);stroke:none"
                 d="m 118.725,312.183 -0.529,-0.702 c 0.092,0.126 1.272,-0.602 2.63,-1.627 l 0,0 c 1.353,-1.026 2.376,-1.957 2.282,-2.083 l 0,0 0.529,0.702 c 0.094,0.127 -0.926,1.059 -2.281,2.082 l 0,0 c -1.256,0.95 -2.357,1.642 -2.591,1.642 l 0,0 c -0.019,0 -0.033,-0.004 -0.04,-0.014"
                 inkscape:connector-curvature="0" />
            </g>
          </g>
        </g>
      </g>
      <g
         id="g860"
         transform="matrix(1.25,0,0,-1.25,429.29948,1059.7007)">
        <g
           id="g862">
          <g
             id="g868">
            <g
               id="g870">
              <path
                 id="path890"
                 style="fill:url(#linearGradient7686);stroke:none"
                 d="m 118.199,311.478 c -0.099,-0.133 0.921,-1.069 2.275,-2.095 l 0,0 c 1.355,-1.022 2.533,-1.742 2.634,-1.612 l 0,0 c 0.1,0.131 -0.918,1.068 -2.275,2.094 l 0,0 c -1.245,0.942 -2.345,1.629 -2.59,1.629 l 0,0 c -0.021,0 -0.036,-0.005 -0.044,-0.016"
                 inkscape:connector-curvature="0" />
            </g>
          </g>
        </g>
      </g>
      <g
         id="g892"
         transform="matrix(1.25,0,0,-1.25,429.29948,1059.7007)">
        <g
           id="g894">
          <g
             id="g900">
            <g
               id="g902">
              <path
                 id="path922"
                 style="fill:url(#linearGradient7688);stroke:none"
                 d="m 118.058,311.473 -0.552,-0.731 c 0.003,0.003 0.01,0.005 0.017,0.006 l 0,0 -3.801,-5.026 5.102,-3.857 3.787,5.018 0.369,0.482 0.186,0.246 c 0.098,0.132 -0.965,1.103 -2.377,2.17 l 0,0 c -1.301,0.982 -2.446,1.707 -2.69,1.707 l 0,0 c -0.02,0 -0.034,-0.005 -0.041,-0.015"
                 inkscape:connector-curvature="0" />
            </g>
          </g>
        </g>
      </g>
      <g
         id="g924"
         transform="matrix(1.25,0,0,-1.25,429.29948,1059.7007)">
        <g
           id="g926">
          <g
             id="g932">
            <g
               id="g934">
              <path
                 id="path954"
                 style="fill:url(#linearGradient7690);stroke:none"
                 d="m 111.084,308.059 c -0.227,-0.285 1.935,-2.423 4.834,-4.774 l 0,0 c 2.901,-2.356 5.434,-4.032 5.666,-3.75 l 0,0 c 0.227,0.282 -1.935,2.419 -4.835,4.774 l 0,0 c -2.69,2.181 -5.063,3.781 -5.578,3.781 l 0,0 c -0.041,0 -0.07,-0.01 -0.087,-0.031"
                 inkscape:connector-curvature="0" />
            </g>
          </g>
        </g>
      </g>
      <g
         id="g956"
         transform="matrix(1.25,0,0,-1.25,429.29948,1059.7007)">
        <g
           id="g958">
          <g
             id="g964">
            <g
               id="g966">
              <path
                 id="path986"
                 style="fill:url(#linearGradient7692);stroke:none"
                 d="m 111.118,307.777 -1.174,-1.443 c 0.21,0.255 2.645,-1.37 5.436,-3.635 l 0,0 c 2.791,-2.267 4.883,-4.313 4.673,-4.571 l 0,0 1.174,1.447 c 0.209,0.256 -1.883,2.301 -4.672,4.568 l 0,0 c -2.597,2.107 -4.883,3.661 -5.36,3.661 l 0,0 c -0.036,0 -0.062,-0.009 -0.077,-0.027"
                 inkscape:connector-curvature="0" />
            </g>
          </g>
        </g>
      </g>
      <g
         id="g988"
         transform="matrix(1.25,0,0,-1.25,429.29948,1059.7007)">
        <g
           id="g990">
          <g
             id="g996">
            <g
               id="g998">
              <path
                 id="path1008"
                 style="fill:url(#linearGradient7694);stroke:none"
                 d="m 108.246,307.345 -1.136,-1.4 0.13,0.052 c 0,0 -0.683,-0.842 0.117,-1.492 l 0,0 12.123,-9.838 c 0.799,-0.651 1.482,0.191 1.482,0.191 l 0,0 1.06,1.303 c 0.279,0.348 -2.579,3.128 -6.385,6.216 l 0,0 c -3.541,2.876 -6.656,5.002 -7.292,5.003 l 0,0 c -0.047,0 -0.08,-0.012 -0.099,-0.035"
                 inkscape:connector-curvature="0" />
            </g>
          </g>
        </g>
      </g>
      <g
         id="g1010"
         transform="matrix(1.25,0,0,-1.25,429.29948,1059.7007)">
        <g
           clip-path="url(#clipPath1014)"
           id="g1012">
          <g
             id="g1018">
            <g
               id="g1020" />
            <g
               mask="url(#mask1062)"
               id="g1090">
              <g
                 id="g1092" />
              <g
                 id="g1108">
                <g
                   id="g1110"
                   clip-path="url(#clipPath1094)">
                  <g
                     id="g1112">
                    <g
                       id="g1114">
                      <g
                         id="g1116">
                        <g
                           id="g1118">
                          <path
                             id="path1120"
                             style="fill:url(#radialGradient7696);stroke:none"
                             d="m 57.925,295.413 c 13.554,16.695 38.076,19.245 54.772,5.692 16.696,-13.553 19.245,-38.075 5.692,-54.772 -13.552,-16.695 -38.075,-19.244 -54.77,-5.691 -16.697,13.554 -19.245,38.074 -5.694,54.771"
                             inkscape:connector-curvature="0" />
                        </g>
                      </g>
                    </g>
                  </g>
                </g>
              </g>
            </g>
          </g>
        </g>
      </g>
      <g
         id="g1122"
         transform="matrix(1.25,0,0,-1.25,429.29948,1059.7007)">
        <g
           id="g1124">
          <g
             id="g1130">
            <g
               id="g1132">
              <path
                 id="path1146"
                 style="fill:url(#linearGradient7698);stroke:none"
                 d="m 57.925,295.413 c -13.55,-16.699 -11.003,-41.217 5.694,-54.771 l 0,0 c 16.695,-13.553 41.218,-11.004 54.771,5.691 l 0,0 c 13.553,16.697 11.006,41.219 -5.693,54.772 l 0,0 c -7.215,5.857 -15.894,8.706 -24.515,8.707 l 0,0 c -11.329,10e-4 -22.56,-4.918 -30.257,-14.399 m 7.412,-52.654 c -15.528,12.602 -17.898,35.408 -5.294,50.935 l 0,0 c 12.605,15.528 35.408,17.899 50.937,5.295 l 0,0 c 15.526,-12.605 17.896,-35.41 5.294,-50.937 l 0,0 C 109.118,239.236 98.671,234.661 88.137,234.66 l 0,0 c -8.019,0 -16.088,2.65 -22.8,8.099"
                 inkscape:connector-curvature="0" />
            </g>
          </g>
        </g>
      </g>
      <g
         id="g1148"
         transform="matrix(1.25,0,0,-1.25,429.29948,1059.7007)">
        <g
           clip-path="url(#clipPath1152)"
           id="g1150">
          <g
             transform="translate(110.98,298.9888)"
             id="g1156">
            <path
               id="path1158"
               style="fill:none;stroke:#2b2b2a;stroke-width:1;stroke-linecap:butt;stroke-linejoin:miter;stroke-miterlimit:10;stroke-opacity:1;stroke-dasharray:none"
               d="M 0,0 C 15.526,-12.605 17.896,-35.41 5.293,-50.937 -7.311,-66.464 -30.115,-68.835 -45.643,-56.23 -61.171,-43.628 -63.541,-20.822 -50.938,-5.294 -38.332,10.233 -15.528,12.604 0,0 z m -47.361,-58.347 c 16.695,-13.553 41.218,-11.004 54.77,5.691 13.553,16.698 11.007,41.219 -5.692,54.772 -16.696,13.553 -41.218,11.003 -54.772,-5.692 -13.55,-16.699 -11.003,-41.216 5.694,-54.771 z"
               inkscape:connector-curvature="0" />
          </g>
        </g>
      </g>
      <g
         id="g1160"
         transform="matrix(1.25,0,0,-1.25,429.29948,1059.7007)">
        <g
           id="g1162">
          <g
             id="g1168">
            <g
               id="g1170">
              <path
                 id="path1184"
                 style="fill:url(#linearGradient7700);stroke:none"
                 d="M 58.808,294.698 C 45.65,278.49 48.124,254.681 64.336,241.522 l 0,0 c 16.208,-13.158 40.016,-10.683 53.174,5.528 l 0,0 c 13.157,16.209 10.682,40.018 -5.529,53.174 l 0,0 c -7.006,5.686 -15.43,8.453 -23.801,8.453 l 0,0 c -10.998,0 -21.902,-4.776 -29.372,-13.979 m 7.193,-51.121 c -15.075,12.236 -17.377,34.377 -5.138,49.453 l 0,0 c 12.235,15.076 34.376,17.376 49.45,5.14 l 0,0 c 15.078,-12.237 17.378,-34.378 5.143,-49.454 l 0,0 c -6.948,-8.559 -17.09,-13 -27.318,-13.001 l 0,0 c -7.786,-0.001 -15.62,2.573 -22.137,7.862"
                 inkscape:connector-curvature="0" />
            </g>
          </g>
        </g>
      </g>
      <g
         id="g1186"
         transform="matrix(1.25,0,0,-1.25,429.29948,1059.7007)">
        <g
           id="g1188">
          <g
             id="g1194">
            <g
               id="g1196">
              <path
                 id="path1210"
                 style="fill:url(#linearGradient7702);stroke:none"
                 d="M 59.516,294.122 C 46.677,278.303 49.09,255.072 64.909,242.231 l 0,0 c 15.818,-12.839 39.052,-10.425 51.891,5.393 l 0,0 c 12.841,15.819 10.427,39.053 -5.393,51.893 l 0,0 c -6.836,5.548 -15.058,8.247 -23.225,8.248 l 0,0 c -10.734,0 -21.375,-4.66 -28.666,-13.643 m 6.004,-51.138 c -15.402,12.504 -17.752,35.124 -5.25,50.527 l 0,0 c 12.501,15.403 35.123,17.754 50.525,5.251 l 0,0 c 15.403,-12.502 17.753,-35.124 5.251,-50.525 l 0,0 c -7.098,-8.745 -17.461,-13.283 -27.911,-13.283 l 0,0 c -7.955,-0.001 -15.958,2.627 -22.615,8.03"
                 inkscape:connector-curvature="0" />
            </g>
          </g>
        </g>
      </g>
    </g>
  </g>
</svg>
